
<?xml version="1.0" encoding="UTF-8" standalone="no"?>
<!-- Created with Inkscape (http://www.inkscape.org/) -->

<svg
   xmlns:svg="http://www.w3.org/2000/svg"
   xmlns="http://www.w3.org/2000/svg"
   xmlns:xlink="http://www.w3.org/1999/xlink"
   version="1.0"
   width="48"
   height="48"
   id="svg2194">
  <defs
     id="defs2197">
    <linearGradient
       id="linearGradient2806">
      <stop
         id="stop2808"
         style="stop-color:#000000;stop-opacity:1"
         offset="0" />
      <stop
         id="stop2810"
         style="stop-color:#000000;stop-opacity:0"
         offset="1" />
    </linearGradient>
    <radialGradient
       cx="25.25"
       cy="39.75"
       r="17.25"
       fx="25.25"
       fy="39.75"
       id="radialGradient2812"
       xlink:href="#linearGradient2806"
       gradientUnits="userSpaceOnUse"
       gradientTransform="matrix(1,0,0,0.333333,0,26.5)" />
    <linearGradient
       id="linearGradient2778">
      <stop
         id="stop2780"
         style="stop-color:#ff0000;stop-opacity:1"
         offset="0" />
      <stop
         id="stop2782"
         style="stop-color:#b20000;stop-opacity:1"
         offset="1" />
    </linearGradient>
    <radialGradient
       cx="30.323671"
       cy="13.380429"
       r="29.755747"
       fx="30.323671"
       fy="13.380429"
       id="radialGradient2784"
       xlink:href="#linearGradient2778"
       gradientUnits="userSpaceOnUse"
       gradientTransform="matrix(1.531919,0,0,1.531919,-16.12973,-7.117303)" />
    <linearGradient
       id="linearGradient2796">
      <stop
         id="stop2798"
         style="stop-color:#ffffff;stop-opacity:1"
         offset="0" />
      <stop
         id="stop2800"
         style="stop-color:#dfdfdf;stop-opacity:1"
         offset="1" />
    </linearGradient>
    <radialGradient
       cx="31.760437"
       cy="22.226139"
       r="18.624397"
       fx="31.760437"
       fy="22.226139"
       id="radialGradient2802"
       xlink:href="#linearGradient2796"
       gradientUnits="userSpaceOnUse"
       gradientTransform="matrix(1.316528,0,0,1.316528,-10.05306,-9.280346)" />
    <linearGradient
       id="linearGradient2788">
      <stop
         id="stop2790"
         style="stop-color:#ffffff;stop-opacity:1"
         offset="0" />
      <stop
         id="stop2792"
         style="stop-color:#ffffff;stop-opacity:0"
         offset="1" />
    </linearGradient>
    <linearGradient
       x1="-0.36309087"
       y1="29.207693"
       x2="59.148403"
       y2="29.207693"
       id="linearGradient2794"
       xlink:href="#linearGradient2788"
       gradientUnits="userSpaceOnUse" />
  </defs>
  <path
     d="m 42.5,39.75 a 17.25,5.75 0 1 1 -34.5,0 17.25,5.75 0 1 1 34.5,0 z"
     transform="matrix(1.15942,0,0,1.507246,-4.7539835,-22.164693)"
     id="path2804"
     style="opacity:0.64432989;color:#000000;fill:url(#radialGradient2812);fill-opacity:1;fill-rule:nonzero;stroke:none;stroke-width:1;marker:none;visibility:visible;display:inline;overflow:visible" />
  <path
     d="m 58.403591,29.207693 a 29.010935,29.010935 0 1 1 -58.0218695,0 29.010935,29.010935 0 1 1 58.0218695,0 z"
     transform="matrix(0.67131,0,0,0.67131,4.2437465,3.4167176)"
     id="path907"
     style="fill:url(#radialGradient2784);fill-opacity:1;fill-rule:evenodd;stroke:#a40000;stroke-width:1.48962474;stroke-linecap:butt;stroke-linejoin:miter;stroke-miterlimit:4;stroke-opacity:1;stroke-dasharray:none" />
  <path
     d="m 50.384842,29.319231 a 18.624397,18.624397 0 1 1 -37.248795,0 18.624397,18.624397 0 1 1 37.248795,0 z"
     transform="matrix(0.780964,0,0,0.780964,-0.8057335,-0.1493424)"
     id="path2159"
     style="fill:url(#radialGradient2802);fill-opacity:1;fill-rule:evenodd;stroke:none" />
  <path
     d="m 58.403591,29.207693 a 29.010935,29.010935 0 1 1 -58.0218695,0 29.010935,29.010935 0 1 1 58.0218695,0 z"
     transform="matrix(0.629301,0,0,0.629301,5.4784965,4.6436976)"
     id="path2786"
     style="opacity:0.37628868;fill:none;stroke:url(#linearGradient2794);stroke-width:1.58906472;stroke-linecap:butt;stroke-linejoin:miter;stroke-miterlimit:4;stroke-opacity:1;stroke-dasharray:none" />
  <path
     d="m 24.212087,12.999027 c -5.57356,0 -10.09736,4.52381 -10.09736,10.09736 0,5.57355 4.5238,10.09736 10.09736,10.09736 4.81881,0 8.85217,-3.37727 9.85725,-7.89362 l -4.80764,0 c -0.8506,1.94502 -2.7919,3.30467 -5.04961,3.30467 -3.04038,0 -5.50655,-2.46711 -5.50655,-5.50748 0,-3.04037 2.4671,-5.50748 5.50655,-5.50748 2.18605,0 4.07337,1.27497 4.96306,3.12134 l 4.84766,0 c -1.07209,-4.42515 -5.05799,-7.71215 -9.81072,-7.71215 z"
     id="circle8_1_"
     style="fill:#a40000;fill-opacity:1" />
</svg>
